<svg width="217" height="111" viewBox="0 0 217 111" fill="none" xmlns="http://www.w3.org/2000/svg">
<path d="M217 -1.15625H0V109.844H217V-1.15625Z" fill="white"/>
<path d="M3.23881 0H0V94.0678H3.23881V0Z" fill="black"/>
<path d="M6.47756 0H4.85815V94.0678H6.47756V0Z" fill="black"/>
<path d="M14.5745 0H9.71631V94.0678H14.5745V0Z" fill="black"/>
<path d="M19.4329 0H17.8135V94.0678H19.4329V0Z" fill="black"/>
<path d="M25.9104 0H22.6716V94.0678H25.9104V0Z" fill="black"/>
<path d="M34.0074 0H29.1492V94.0678H34.0074V0Z" fill="black"/>
<path d="M38.8658 0H35.627V94.0678H38.8658V0Z" fill="black"/>
<path d="M45.3433 0H42.1045V94.0678H45.3433V0Z" fill="black"/>
<path d="M51.8208 0H48.582V94.0678H51.8208V0Z" fill="black"/>
<path d="M55.0596 0H53.4402V94.0678H55.0596V0Z" fill="black"/>
<path d="M63.1568 0H56.6792V94.0678H63.1568V0Z" fill="black"/>
<path d="M69.6343 0H64.7761V94.0678H69.6343V0Z" fill="black"/>
<path d="M72.8731 0H71.2537V94.0678H72.8731V0Z" fill="black"/>
<path d="M79.3509 0H76.1121V94.0678H79.3509V0Z" fill="black"/>
<path d="M85.8284 0H80.9702V94.0678H85.8284V0Z" fill="black"/>
<path d="M90.6865 0H89.0671V94.0678H90.6865V0Z" fill="black"/>
<path d="M98.7835 0H93.9253V94.0678H98.7835V0Z" fill="black"/>
<path d="M103.642 0H100.403V94.0678H103.642V0Z" fill="black"/>
<path d="M111.739 -1.15625H106.881V92.9115H111.739V-1.15625Z" fill="black"/>
<path d="M116.597 -1.15625H113.358V92.9115H116.597V-1.15625Z" fill="black"/>
<path d="M123.075 -1.15625H118.217V92.9115H123.075V-1.15625Z" fill="black"/>
<path d="M126.313 -1.15625H124.694V92.9115H126.313V-1.15625Z" fill="black"/>
<path d="M132.791 -1.15625H129.552V92.9115H132.791V-1.15625Z" fill="black"/>
<path d="M139.269 -1.15625H134.411V92.9115H139.269V-1.15625Z" fill="black"/>
<path d="M145.746 -1.15625H142.507V92.9115H145.746V-1.15625Z" fill="black"/>
<path d="M153.844 -1.15625H148.985V92.9115H153.844V-1.15625Z" fill="black"/>
<path d="M158.701 -1.15625H157.082V92.9115H158.701V-1.15625Z" fill="black"/>
<path d="M163.56 -1.15625H160.321V92.9115H163.56V-1.15625Z" fill="black"/>
<path d="M171.657 -1.15625H166.799V92.9115H171.657V-1.15625Z" fill="black"/>
<path d="M176.515 -1.15625H174.896V92.9115H176.515V-1.15625Z" fill="black"/>
<path d="M182.993 -1.15625H178.135V92.9115H182.993V-1.15625Z" fill="black"/>
<path d="M191.09 -1.15625H184.612V92.9115H191.09V-1.15625Z" fill="black"/>
<path d="M194.328 -1.15625H192.709V92.9115H194.328V-1.15625Z" fill="black"/>
<path d="M199.187 -1.15625H195.948V92.9115H199.187V-1.15625Z" fill="black"/>
<path d="M208.903 -1.15625H204.045V92.9115H208.903V-1.15625Z" fill="black"/>
<path d="M212.142 -1.15625H210.522V92.9115H212.142V-1.15625Z" fill="black"/>
<path d="M217 -1.15625H213.761V92.9115H217V-1.15625Z" fill="black"/>
<path d="M71.8869 99.6126V110.522H70.5658V100.998H70.5019L67.8386 102.766V101.424L70.5658 99.6126H71.8869ZM74.7686 108.285V107.198L79.5626 99.6126H80.351V101.296H79.8183L76.1962 107.027V107.113H82.6521V108.285H74.7686ZM79.9035 110.522V107.954V107.448V99.6126H81.1606V110.522H79.9035ZM88.2065 110.671C87.404 110.671 86.7204 110.452 86.1558 110.016C85.5911 109.575 85.1597 108.938 84.8614 108.103C84.5631 107.265 84.4139 106.253 84.4139 105.067C84.4139 103.888 84.5631 102.881 84.8614 102.047C85.1632 101.209 85.5965 100.57 86.1611 100.129C86.7293 99.6854 87.4111 99.4635 88.2065 99.4635C89.002 99.4635 89.682 99.6854 90.2467 100.129C90.8149 100.57 91.2481 101.209 91.5464 102.047C91.8482 102.881 91.9992 103.888 91.9992 105.067C91.9992 106.253 91.85 107.265 91.5517 108.103C91.2534 108.938 90.822 109.575 90.2573 110.016C89.6927 110.452 89.0091 110.671 88.2065 110.671ZM88.2065 109.499C89.002 109.499 89.6199 109.115 90.0602 108.348C90.5006 107.581 90.7207 106.488 90.7207 105.067C90.7207 104.123 90.6195 103.318 90.4171 102.654C90.2183 101.99 89.9306 101.484 89.5542 101.136C89.1813 100.788 88.7321 100.614 88.2065 100.614C87.4182 100.614 86.8021 101.003 86.3582 101.781C85.9143 102.555 85.6923 103.65 85.6923 105.067C85.6923 106.012 85.7918 106.814 85.9906 107.475C86.1895 108.135 86.4754 108.638 86.8482 108.982C87.2247 109.327 87.6774 109.499 88.2065 109.499ZM94.0233 110.522V109.563L97.6242 105.621C98.0467 105.16 98.3948 104.758 98.6682 104.417C98.9416 104.073 99.144 103.75 99.2754 103.448C99.4104 103.142 99.4778 102.823 99.4778 102.489C99.4778 102.106 99.3855 101.774 99.2009 101.493C99.0198 101.212 98.7712 100.996 98.4551 100.843C98.1391 100.69 97.784 100.614 97.3898 100.614C96.9707 100.614 96.605 100.701 96.2925 100.875C95.9835 101.046 95.7438 101.285 95.5734 101.594C95.4065 101.903 95.323 102.265 95.323 102.681H94.0659C94.0659 102.042 94.2133 101.481 94.508 100.998C94.8028 100.515 95.2041 100.138 95.7119 99.8683C96.2232 99.5984 96.7967 99.4635 97.4324 99.4635C98.0716 99.4635 98.638 99.5984 99.1316 99.8683C99.6252 100.138 100.012 100.502 100.293 100.96C100.573 101.418 100.714 101.928 100.714 102.489C100.714 102.89 100.641 103.283 100.495 103.666C100.353 104.046 100.105 104.471 99.7495 104.939C99.3979 105.405 98.9097 105.973 98.2847 106.644L95.8344 109.265V109.35H100.905V110.522H94.0233ZM107.814 104.481V105.653H103.041V104.481H107.814ZM113.563 110.671C112.76 110.671 112.077 110.452 111.512 110.016C110.948 109.575 110.516 108.938 110.218 108.103C109.92 107.265 109.77 106.253 109.77 105.067C109.77 103.888 109.92 102.881 110.218 102.047C110.52 101.209 110.953 100.57 111.518 100.129C112.086 99.6854 112.768 99.4635 113.563 99.4635C114.358 99.4635 115.038 99.6854 115.603 100.129C116.171 100.57 116.605 101.209 116.903 102.047C117.205 102.881 117.356 103.888 117.356 105.067C117.356 106.253 117.206 107.265 116.908 108.103C116.61 108.938 116.178 109.575 115.614 110.016C115.049 110.452 114.366 110.671 113.563 110.671ZM113.563 109.499C114.358 109.499 114.976 109.115 115.417 108.348C115.857 107.581 116.077 106.488 116.077 105.067C116.077 104.123 115.976 103.318 115.774 102.654C115.575 101.99 115.287 101.484 114.911 101.136C114.538 100.788 114.089 100.614 113.563 100.614C112.775 100.614 112.159 101.003 111.715 101.781C111.271 102.555 111.049 103.65 111.049 105.067C111.049 106.012 111.148 106.814 111.347 107.475C111.546 108.135 111.832 108.638 112.205 108.982C112.581 109.327 113.034 109.499 113.563 109.499ZM119.428 110.522L124.307 100.87V100.785H118.682V99.6126H125.671V100.848L120.813 110.522H119.428ZM132.365 104.481V105.653H127.592V104.481H132.365ZM134.043 110.522V109.563L137.644 105.621C138.066 105.16 138.414 104.758 138.688 104.417C138.961 104.073 139.164 103.75 139.295 103.448C139.43 103.142 139.497 102.823 139.497 102.489C139.497 102.106 139.405 101.774 139.22 101.493C139.039 101.212 138.791 100.996 138.475 100.843C138.159 100.69 137.803 100.614 137.409 100.614C136.99 100.614 136.625 100.701 136.312 100.875C136.003 101.046 135.763 101.285 135.593 101.594C135.426 101.903 135.343 102.265 135.343 102.681H134.085C134.085 102.042 134.233 101.481 134.528 100.998C134.822 100.515 135.224 100.138 135.731 99.8683C136.243 99.5984 136.816 99.4635 137.452 99.4635C138.091 99.4635 138.658 99.5984 139.151 99.8683C139.645 100.138 140.032 100.502 140.312 100.96C140.593 101.418 140.733 101.928 140.733 102.489C140.733 102.89 140.66 103.283 140.515 103.666C140.373 104.046 140.124 104.471 139.769 104.939C139.417 105.405 138.929 105.973 138.304 106.644L135.854 109.265V109.35H140.925V110.522H134.043ZM143.125 110.522V109.563L146.726 105.621C147.148 105.16 147.496 104.758 147.77 104.417C148.043 104.073 148.246 103.75 148.377 103.448C148.512 103.142 148.579 102.823 148.579 102.489C148.579 102.106 148.487 101.774 148.302 101.493C148.121 101.212 147.873 100.996 147.557 100.843C147.241 100.69 146.886 100.614 146.491 100.614C146.072 100.614 145.707 100.701 145.394 100.875C145.085 101.046 144.845 101.285 144.675 101.594C144.508 101.903 144.425 102.265 144.425 102.681H143.167C143.167 102.042 143.315 101.481 143.61 100.998C143.904 100.515 144.306 100.138 144.813 99.8683C145.325 99.5984 145.898 99.4635 146.534 99.4635C147.173 99.4635 147.74 99.5984 148.233 99.8683C148.727 100.138 149.114 100.502 149.394 100.96C149.675 101.418 149.815 101.928 149.815 102.489C149.815 102.89 149.742 103.283 149.597 103.666C149.455 104.046 149.206 104.471 148.851 104.939C148.5 105.405 148.011 105.973 147.386 106.644L144.936 109.265V109.35H150.007V110.522H143.125Z" fill="black"/>
</svg>
